STARTFONT 2.1
COMMENT "Generated by fontforge, http://fontforge.sourceforge.net"
FONT -Efont-Fixed-Medium-R-Normal--14-140-75-75-C-70-ISO10646-1
SIZE 14 75 75
FONTBOUNDINGBOX 7 14 0 -2
STARTPROPERTIES 19
COPYRIGHT "(c) Copyright 2000-2003 /efont/ The Electronic Font Open Laboratory."
FOUNDRY "Efont"
FAMILY_NAME "Fixed"
WEIGHT_NAME "Medium"
SLANT "R"
SETWIDTH_NAME "Normal"
ADD_STYLE_NAME ""
PIXEL_SIZE 14
POINT_SIZE 140
RESOLUTION_X 75
RESOLUTION_Y 75
AVERAGE_WIDTH 70
CHARSET_REGISTRY "ISO10646"
CHARSET_ENCODING "1"
_MULE_BASELINE_OFFSET -3
FONT_ASCENT 12
FONT_DESCENT 2
DEFAULT_CHAR 32
_GBDFED_INFO "Edited with gbdfed 1.1."
ENDPROPERTIES
CHARS 40
STARTCHAR U+10D0
ENCODING 4304
SWIDTH 480 0
DWIDTH 7 0
BBX 7 14 0 -2
BITMAP
00
00
00
00
10
08
04
44
44
38
00
00
00
00
ENDCHAR
STARTCHAR U+10D1
ENCODING 4305
SWIDTH 480 0
DWIDTH 7 0
BBX 7 14 0 -2
BITMAP
40
60
50
10
10
38
44
44
44
38
00
00
00
00
ENDCHAR
STARTCHAR U+10D2
ENCODING 4306
SWIDTH 480 0
DWIDTH 7 0
BBX 7 14 0 -2
BITMAP
00
00
00
00
00
30
48
08
10
38
44
44
44
38
ENDCHAR
STARTCHAR U+10D3
ENCODING 4307
SWIDTH 480 0
DWIDTH 7 0
BBX 7 14 0 -2
BITMAP
00
00
00
00
00
2C
52
52
52
4C
40
40
20
1C
ENDCHAR
STARTCHAR U+10D4
ENCODING 4308
SWIDTH 480 0
DWIDTH 7 0
BBX 7 14 0 -2
BITMAP
00
00
00
00
00
38
44
44
04
04
04
44
44
38
ENDCHAR
STARTCHAR U+10D5
ENCODING 4309
SWIDTH 480 0
DWIDTH 7 0
BBX 7 14 0 -2
BITMAP
00
00
00
00
00
38
44
44
04
18
04
44
44
38
ENDCHAR
STARTCHAR U+10D6
ENCODING 4310
SWIDTH 480 0
DWIDTH 7 0
BBX 7 14 0 -2
BITMAP
00
20
50
50
20
38
44
44
44
38
00
00
00
00
ENDCHAR
STARTCHAR U+10D7
ENCODING 4311
SWIDTH 480 0
DWIDTH 7 0
BBX 7 14 0 -2
BITMAP
00
00
00
00
00
6C
92
92
92
64
00
00
00
00
ENDCHAR
STARTCHAR U+10D8
ENCODING 4312
SWIDTH 480 0
DWIDTH 7 0
BBX 7 14 0 -2
BITMAP
00
00
00
00
00
38
44
44
44
28
00
00
00
00
ENDCHAR
STARTCHAR U+10D9
ENCODING 4313
SWIDTH 480 0
DWIDTH 7 0
BBX 7 14 0 -2
BITMAP
00
00
00
00
00
00
08
04
04
18
04
44
44
38
ENDCHAR
STARTCHAR U+10DA
ENCODING 4314
SWIDTH 480 0
DWIDTH 7 0
BBX 7 14 0 -2
BITMAP
00
00
00
00
00
54
AA
AA
82
84
80
40
20
1C
ENDCHAR
STARTCHAR U+10DB
ENCODING 4315
SWIDTH 480 0
DWIDTH 7 0
BBX 7 14 0 -2
BITMAP
38
44
44
04
04
3C
44
44
44
38
00
00
00
00
ENDCHAR
STARTCHAR U+10DC
ENCODING 4316
SWIDTH 480 0
DWIDTH 7 0
BBX 7 14 0 -2
BITMAP
00
3C
40
40
40
78
44
44
44
38
00
00
00
00
ENDCHAR
STARTCHAR U+10DD
ENCODING 4317
SWIDTH 480 0
DWIDTH 7 0
BBX 7 14 0 -2
BITMAP
00
00
00
00
00
6C
92
92
82
44
00
00
00
00
ENDCHAR
STARTCHAR U+10DE
ENCODING 4318
SWIDTH 480 0
DWIDTH 7 0
BBX 7 14 0 -2
BITMAP
10
10
08
04
04
18
04
44
44
38
00
00
00
00
ENDCHAR
STARTCHAR U+10DF
ENCODING 4319
SWIDTH 480 0
DWIDTH 7 0
BBX 7 14 0 -2
BITMAP
00
00
00
00
00
1C
24
94
94
64
04
04
44
38
ENDCHAR
STARTCHAR U+10E0
ENCODING 4320
SWIDTH 480 0
DWIDTH 7 0
BBX 7 14 0 -2
BITMAP
3C
40
80
80
80
EC
92
92
82
44
00
00
00
00
ENDCHAR
STARTCHAR U+10E1
ENCODING 4321
SWIDTH 480 0
DWIDTH 7 0
BBX 7 14 0 -2
BITMAP
40
40
40
40
40
48
44
44
44
38
00
00
00
00
ENDCHAR
STARTCHAR U+10E2
ENCODING 4322
SWIDTH 480 0
DWIDTH 7 0
BBX 7 14 0 -2
BITMAP
00
00
00
10
10
10
38
54
54
44
44
44
44
38
ENDCHAR
STARTCHAR U+10E3
ENCODING 4323
SWIDTH 480 0
DWIDTH 7 0
BBX 7 14 0 -2
BITMAP
00
00
00
00
00
6C
12
12
02
02
02
22
22
1C
ENDCHAR
STARTCHAR U+10E4
ENCODING 4324
SWIDTH 480 0
DWIDTH 7 0
BBX 7 14 0 -2
BITMAP
00
00
00
00
00
6C
92
92
92
66
02
02
02
3C
ENDCHAR
STARTCHAR U+10E5
ENCODING 4325
SWIDTH 480 0
DWIDTH 7 0
BBX 7 14 0 -2
BITMAP
00
00
04
04
04
1C
24
24
04
04
04
04
44
38
ENDCHAR
STARTCHAR U+10E6
ENCODING 4326
SWIDTH 480 0
DWIDTH 7 0
BBX 7 14 0 -2
BITMAP
00
00
00
00
00
6C
92
92
82
84
80
80
40
38
ENDCHAR
STARTCHAR U+10E7
ENCODING 4327
SWIDTH 480 0
DWIDTH 7 0
BBX 7 14 0 -2
BITMAP
00
00
00
00
00
24
44
44
44
3C
04
04
44
38
ENDCHAR
STARTCHAR U+10E8
ENCODING 4328
SWIDTH 480 0
DWIDTH 7 0
BBX 7 14 0 -2
BITMAP
00
D8
24
24
04
3C
44
44
44
38
00
00
00
00
ENDCHAR
STARTCHAR U+10E9
ENCODING 4329
SWIDTH 480 0
DWIDTH 7 0
BBX 7 14 0 -2
BITMAP
30
48
48
50
60
78
44
44
44
48
00
00
00
00
ENDCHAR
STARTCHAR U+10EA
ENCODING 4330
SWIDTH 480 0
DWIDTH 7 0
BBX 7 14 0 -2
BITMAP
00
00
00
00
00
48
44
44
44
58
44
44
44
38
ENDCHAR
STARTCHAR U+10EB
ENCODING 4331
SWIDTH 480 0
DWIDTH 7 0
BBX 7 14 0 -2
BITMAP
00
04
04
04
04
3C
44
44
44
38
00
00
00
00
ENDCHAR
STARTCHAR U+10EC
ENCODING 4332
SWIDTH 480 0
DWIDTH 7 0
BBX 7 14 0 -2
BITMAP
36
48
48
40
40
7C
44
44
48
50
60
40
40
40
ENDCHAR
STARTCHAR U+10ED
ENCODING 4333
SWIDTH 480 0
DWIDTH 7 0
BBX 7 14 0 -2
BITMAP
10
10
10
74
98
98
74
10
18
04
04
44
44
38
ENDCHAR
STARTCHAR U+10EE
ENCODING 4334
SWIDTH 480 0
DWIDTH 7 0
BBX 7 14 0 -2
BITMAP
40
40
40
40
40
78
44
44
44
38
00
00
00
00
ENDCHAR
STARTCHAR U+10EF
ENCODING 4335
SWIDTH 480 0
DWIDTH 7 0
BBX 7 14 0 -2
BITMAP
00
00
00
10
10
10
7C
10
18
04
04
44
44
38
ENDCHAR
STARTCHAR U+10F0
ENCODING 4336
SWIDTH 480 0
DWIDTH 7 0
BBX 7 14 0 -2
BITMAP
04
04
18
04
04
18
04
44
44
38
00
00
00
00
ENDCHAR
STARTCHAR U+10F1
ENCODING 4337
SWIDTH 480 0
DWIDTH 7 0
BBX 7 14 0 -2
BITMAP
00
44
58
44
44
58
44
44
44
38
00
00
00
00
ENDCHAR
STARTCHAR U+10F2
ENCODING 4338
SWIDTH 480 0
DWIDTH 7 0
BBX 7 14 0 -2
BITMAP
00
00
00
00
00
38
44
44
44
38
44
00
00
00
ENDCHAR
STARTCHAR U+10F3
ENCODING 4339
SWIDTH 480 0
DWIDTH 7 0
BBX 7 14 0 -2
BITMAP
00
00
00
00
00
3C
04
08
18
04
04
44
44
38
ENDCHAR
STARTCHAR U+10F4
ENCODING 4340
SWIDTH 480 0
DWIDTH 7 0
BBX 7 14 0 -2
BITMAP
00
00
00
10
20
18
04
04
18
04
04
44
44
38
ENDCHAR
STARTCHAR U+10F5
ENCODING 4341
SWIDTH 480 0
DWIDTH 7 0
BBX 7 14 0 -2
BITMAP
38
44
44
3E
04
3E
44
44
44
38
00
00
00
00
ENDCHAR
STARTCHAR U+10F6
ENCODING 4342
SWIDTH 480 0
DWIDTH 7 0
BBX 7 14 0 -2
BITMAP
00
00
00
00
20
10
10
38
54
54
38
10
10
08
ENDCHAR
STARTCHAR U+10FB
ENCODING 4347
SWIDTH 480 0
DWIDTH 7 0
BBX 7 14 0 -2
BITMAP
00
00
00
60
60
00
0C
0C
00
60
60
00
00
00
ENDCHAR
ENDFONT
